<?xml version="1.0" encoding="UTF-8" standalone="no"?>
<!DOCTYPE svg PUBLIC "-//W3C//DTD SVG 1.1//EN" "http://www.w3.org/Graphics/SVG/1.1/DTD/svg11.dtd">
<svg version="1.1" xmlns="http://www.w3.org/2000/svg" xmlns:xlink="http://www.w3.org/1999/xlink" preserveAspectRatio="xMidYMid meet" viewBox="0 0 640 640" width="100" height="100"><defs><path d="M390.08 182.88L321.68 96.15L287.12 140.54L495.21 408.23L321.68 635.62L146.71 408.23L180.55 364.52L321.68 546.17L425.37 408.23L215.83 140.54L319.68 5.33L425.37 140.54L390.08 182.88ZM344.36 333.96L377.84 380.06L322.76 450.74L179.11 274.55L43.02 450.74L5.22 408.74L179.11 184.41L319.68 363.67L344.36 333.96ZM602.5 449.2L460.65 274.38L440.49 302.38L404.48 258.68L460.65 184.41L635.62 408.91L602.5 449.2Z" id="b1DNBYcYFE"></path></defs><g><g><g><g><use xlink:href="#b1DNBYcYFE" opacity="1" fill-opacity="0" stroke="#ffffff" stroke-width="10" stroke-opacity="1"></use></g></g></g></g></svg>